# xmcd
#
# Track frame offsets: 
#        150
#        15365
#        27475
#        44445
#        63380
#        74830
#        89735
#        99110
#        117250
#        126035
#        146645
#        160309
#        168067
#        181130
#        197665
#        209580
#        221870
#        232505
#
# Disc length: 3287 seconds
#
# Revision: 0
# Processed by: cddbd v1.5.2PL0 Copyright (c) Steve Scherf et al.
# Submitted via: ExactAudioCopyFreeDBPlugin 1.0
#
DISCID=fe0cd512
DTITLE=The Tin Eddies - The Tin Eddies
DYEAR=1994
DGENRE=Country
TTITLE0=Mabel Just Maybe
TTITLE1=Love Train
TTITLE2=Faster And Faster
TTITLE3=She's No Longer Mine
TTITLE4=What Did I Do Last Night?
TTITLE5=Can't Come Home
TTITLE6=Little Bitty Pretty One
TTITLE7=Burly Girl
TTITLE8=Lotta Lovin'
TTITLE9=Moscow To Memphis
TTITLE10=Goin' Nowhere
TTITLE11=Nice Legs, Shame About Your Face
TTITLE12=There Goes My Baby
TTITLE13=Rip Fever
TTITLE14=Chantilly Lace
TTITLE15=Blue Moon Of Kentucky
TTITLE16=Noboby Told Me
TTITLE17=Rip It Up
EXTD=
EXTT0=
EXTT1=
EXTT2=
EXTT3=
EXTT4=
EXTT5=
EXTT6=
EXTT7=
EXTT8=
EXTT9=
EXTT10=
EXTT11=
EXTT12=
EXTT13=
EXTT14=
EXTT15=
EXTT16=
EXTT17=
PLAYORDER=
